# xmcd
#
# Track frame offsets:
#	150
#	18490
#	40440
#	61725
#	81786
#	105603
#	127016
#	154289
#	181039
#	197016
#	224352
#	248991
#
# Disc length: 3727 seconds
#
# Revision: 0
# Processed by: cddbd v1.5.1PL0 Copyright (c) Steve Scherf et al.
# Submitted via: dBpowerAMP V4.0
#
DISCID=a30e8d0c
DTITLE=Nicky Moore and the Blues Coporation - Old, New, Borrowed and Blue
DYEAR=2003
DGENRE=Blues
TTITLE0=So Good So Right
TTITLE1=Leave My Door
TTITLE2=Lorraine
TTITLE3=So Long Blues
TTITLE4=In The Beginning
TTITLE5=Let Me Back In
TTITLE6=Have You Ever Heard Of Bobby Bland?
TTITLE7=Your Turn Will Come One Day
TTITLE8=Ain't Supersitious
TTITLE9=300lbs Of Joy
TTITLE10=Leyland Mississippi Blues
TTITLE11=Back Where I Belong
EXTD=
EXTT0=
EXTT1=
EXTT2=
EXTT3=
EXTT4=
EXTT5=
EXTT6=
EXTT7=
EXTT8=
EXTT9=
EXTT10=
EXTT11=
PLAYORDER=
